# xmcd
#
# Track frame offsets:
#	150
#	20520
#	43039
#	63707
#	90361
#	119226
#	140336
#	158083
#	175184
#	192848
#	209713
#	233755
#	256988
#	289828
#	306773
#	324939
#
# Disc length: 4603 seconds
# Revision: 1
# Processed by: cddbd v1.5.2PL0 Copyright (c) Steve Scherf et al.
# Submitted via: dBpowerAMP V12.0
#
DISCID=e711f910
DTITLE=Yanni,AKAYiannisChryssomallis,Kalamata,Greece - The Essential Yanni,CD2of2
DYEAR=2010
DGENRE=New Age
TTITLE0=Walkabout
TTITLE1=Desire
TTITLE2=Someday
TTITLE3=Point of Origin
TTITLE4=Butterfly Dance
TTITLE5=Swept Away
TTITLE6=Forbidden Dreams
TTITLE7=In the Morning Light
TTITLE8=Turn of the Tide
TTITLE9=A Word in Private
TTITLE10=Standing in Motion
TTITLE11=Human Condition
TTITLE12=The Rain Must Fall
TTITLE13=Face in the Photograph
TTITLE14=In the Mirror
TTITLE15=Before I Go
EXTD=
EXTT0=
EXTT1=
EXTT2=
EXTT3=
EXTT4=
EXTT5=
EXTT6=
EXTT7=
EXTT8=
EXTT9=
EXTT10=
EXTT11=
EXTT12=
EXTT13=
EXTT14=
EXTT15=
PLAYORDER=
